The Tourist (2010)

Director: Florian Henckel von Donnersmarck

The Tourist is a 2010 thriller/romance film directed by Florian Henckel von Donnersmarck, starring Angelina Jolie and Johnny Depp. It is a remake of the 2005 French action film Anthony Zimmer. After a very public slow start, The Tourist went on to gross US$ 264 million worldwide. Despite the negative reception from the critics, the film was nominated for three Golden Globes, with a debate arising over the question if it was a comedy or a drama. Donnersmarck repeatedly stated it was neither genre, calling it "a travel romance with thriller elements", but that if he had to choose between the two, he would choose comedy.

Despite its critical reception, the film was nominated for three Golden Globes: Best Musical or Comedy, Depp for Actor Musical or Comedy and Jolie for Actress Musical or Comedy. The fact that a film originally promoted as romantic thriller was nominated for the comedy or musical category garnered the film and the Golden Globes considerable mockery; when the Hollywood Foreign Press Association (HFPA) made the official announcement of nominees, the press room erupted with laughter. It was later revealed that the film was originally submitted by the studio as a drama, but von Donnersmarck then told the HFPA that the film should be categorized as a comedy. HFPA President Phil Berk noted that "Given the differing opinions, we asked the studio to screen the film for us in advance, and collectively, we decided that the elements of preposterous fun lent the film more to a comedy than a straight drama category."

Media Info:
General
Complete name                    : J:\Seeding\The Tourist (2010)[DVDRip][big_dad_e™]\The Tourist (2010)[DVDRip][big_dad_e™].avi
Format                           : AVI
Format/Info                      : Audio Video Interleave
File size                        : 1 006 MiB
Duration                         : 1h 43mn
Overall bit rate                 : 1 359 Kbps
Movie name                       : THE_TOURIST.Title1.DVDRip
Writing application              : Lavf52.78.4
Original source form/Name        : THE_TOURIST

Video
ID                               : 0
Format                           : MPEG-4 Visual
Format profile                   : Advanced Simple@L5
Format settings, BVOP            : 2
Format settings, QPel            : No
Format settings, GMC             : No warppoints
Format settings, Matrix          : Default (H.263)
Muxing mode                      : Packed bitstream
Codec ID                         : XVID
Codec ID/Hint                    : XviD
Duration                         : 1h 43mn
Bit rate                         : 1 027 Kbps
Width                            : 720 pixels
Height                           : 298 pixels
Display aspect ratio             : 2.40:1
Frame rate                       : 23.976 fps
Color space                      : YUV
Chroma subsampling               : 4:2:0
Bit depth                        : 8 bits
Scan type                        : Progressive
Compression mode                 : Lossy
Bits/(Pixel*Frame)               : 0.200
Stream size                      : 760 MiB (76%)
Writing library                  : XviD 

Audio
ID                               : 1
Format                           : MPEG Audio
Format version                   : Version 1
Format profile                   : Layer 3
Mode                             : Joint stereo
Mode extension                   : MS Stereo
Codec ID                         : 55
Codec ID/Hint                    : MP3
Duration                         : 1h 43mn
Bit rate mode                    : Constant
Bit rate                         : 320 Kbps
Channel(s)                       : 2 channels
Sampling rate                    : 48.0 KHz
Compression mode                 : Lossy
Stream size                      : 237 MiB (24%)
Alignment                        : Aligned on interleaves
Interleave, duration             : 24 ms (0.58 video frame)
Interleave, preload duration     : 24 ms
Writing library                  : LAME3.98.4

File Scan:
Malwarebytes' Anti-Malware 1.50.1.1100
www.malwarebytes.org

Database version: 6206
3/29/2011 5:17:45 PM
mbam-log-2011-03-29 (17-17-44).txt

Scan type: Quick scan
Objects scanned: 5
Time elapsed: 24 second(s)

Memory Processes Infected: 0
Memory Modules Infected: 0
Registry Keys Infected: 0
Registry Values Infected: 0
Registry Data Items Infected: 0
Folders Infected: 0
Files Infected: 0

Memory Processes Infected:
(No malicious items detected)

Memory Modules Infected:
(No malicious items detected)

Registry Keys Infected:
(No malicious items detected)

Registry Values Infected:
(No malicious items detected)

Registry Data Items Infected:
(No malicious items detected)

Folders Infected:
(No malicious items detected)

Files Infected:
(No malicious items detected)

When using TPB please read these important notes:
  
01- Anti-malware apps may warn about keygens, patches, cracks, etc., because of 
    their capabilities, (generating codes, etc.). Sometimes they're added to 
    the virus/spyware database and will be detected as malware. If you don't trust
    the keygens, patches, cracks, etc., don't use them. 
    
02- Before running .exe-files, keygens, patches, cracks, etc., always check first 
    if they can be unpacked. Often some third party added a virus to the 
    original file, repacked it and uploaded it again.

03- Letting anti-malware apps send scan results to their companies can cause
    keygens, patches, cracks, etc., to be added to their virus-database.

04- Firewalls which are set to automatically determine connections will allow 
    apps & malware!. Avoid this by manually configuring your firewall.

05- Usually (new) torrents with many downloads and seeders in a brief period is
    suspicious! Torrents with the Skull & Crossbones icon are trusted.

06- Some people use multiple accounts and post fake comments 
    and/or files trying to spread confusion. They seldom seriously
    comment or have any torrents, or a just a few to look passable.

07- Clicking on unknown links can cause malware to be installed on your machine.
  
08- In general often there are more fake and negative comments than reliable and
    positive comments.

09- In some countries uploading/downloading copyright protected material is 
    forbidden, but showing some appreciation to reliable up-loaders is not.

10- Posting fake and negative comments or fake/infected uploads on TPB can result
    in getting banned from TPB!

Requests?  Find me on SuprBay. http://forum.suprbay.org
 

For reporting bad or suspicious torrents:  
http://forum.suprbay.org/forumdisplay.php?fid=29

For more of my torrents: 
https://thepiratebay.org/user/big_dad_e/  (Secured)

All torrents scanned with:
Norton Anti-virus
Malwarebytes' Anti-malware
 
http://www.pirate-party.us/

ALWAYS SEED & THANKS SEEDERS!